<svg width="18" height="18" viewBox="0 0 18 18" fill="none" xmlns="http://www.w3.org/2000/svg">
<path d="M15.8078 12.857C16.5365 11.6698 16.9214 10.3035 16.9195 8.91042C16.9214 7.51728 16.5365 6.15079 15.8078 4.96348L15.8037 4.95686C15.1276 3.85485 14.1802 2.94464 13.052 2.31321C11.9238 1.68178 10.6525 1.35022 9.3596 1.35022C8.06672 1.35022 6.79544 1.68178 5.66725 2.31321C4.53905 2.94464 3.59163 3.85485 2.91553 4.95686L2.91145 4.96348C2.1845 6.15159 1.7998 7.51739 1.7998 8.91025C1.7998 10.3031 2.1845 11.6689 2.91145 12.857L2.9157 12.8638C3.59183 13.9658 4.53925 14.8759 5.66744 15.5073C6.79563 16.1387 8.06688 16.4702 9.35973 16.4702C10.6526 16.4702 11.9238 16.1386 13.052 15.5072C14.1802 14.8758 15.1276 13.9656 15.8037 12.8636L15.8078 12.857ZM10.3259 15.1744C10.1818 15.3134 10.016 15.428 9.83494 15.5135C9.68639 15.5841 9.52398 15.6207 9.35952 15.6207C9.19505 15.6207 9.03264 15.5841 8.88409 15.5135C8.53966 15.3376 8.24482 15.0781 8.02651 14.7589C7.58071 14.1146 7.25034 13.3977 7.05019 12.6402C7.8192 12.5929 8.589 12.5688 9.3596 12.5679C10.1299 12.5679 10.8997 12.592 11.6692 12.6402C11.5584 13.0297 11.42 13.4107 11.255 13.7805C11.0378 14.3005 10.7223 14.7738 10.3259 15.1744ZM2.66393 9.33496H5.71319C5.73306 10.1858 5.8253 11.0334 5.98891 11.8686C5.15535 11.942 4.32393 12.0428 3.49466 12.171C3.00901 11.2997 2.72511 10.3306 2.66393 9.33496ZM3.49466 5.64965C4.32359 5.77808 5.15529 5.87888 5.98976 5.95204C5.82586 6.78716 5.73345 7.63472 5.71353 8.48553H2.66393C2.72514 7.48998 3.00903 6.52087 3.49466 5.64965ZM8.39329 2.64608C8.53737 2.50705 8.70322 2.3925 8.88426 2.30699C9.03281 2.23641 9.19522 2.19979 9.35968 2.19979C9.52415 2.19979 9.68656 2.23641 9.83511 2.30699C10.1795 2.48291 10.4744 2.74236 10.6927 3.06162C11.1385 3.70589 11.4689 4.42278 11.669 5.18025C10.9 5.2276 10.1302 5.25172 9.3596 5.25262C8.58934 5.25262 7.81948 5.2285 7.05002 5.18025C7.16083 4.79081 7.29924 4.40976 7.46419 4.03999C7.68141 3.51995 7.99687 3.04667 8.39329 2.64608ZM16.0553 8.48553H13.006C12.9861 7.63469 12.8939 6.78708 12.7303 5.95187C13.5639 5.87848 14.3953 5.77768 15.2245 5.64948C15.7102 6.52075 15.9941 7.48993 16.0553 8.48553ZM6.84327 11.8025C6.67717 10.9899 6.58337 10.1641 6.56296 9.33496H12.1564C12.1362 10.1642 12.0426 10.99 11.8766 11.8027C11.0385 11.7477 10.1995 11.7196 9.3596 11.7184C8.52037 11.7184 7.68159 11.7465 6.84327 11.8025ZM11.8759 6.01796C12.042 6.8306 12.1358 7.65635 12.1562 8.48553H6.56296C6.58317 7.6563 6.67681 6.83049 6.84276 6.01779C7.68085 6.07283 8.51986 6.10092 9.35977 6.10205C10.199 6.10205 11.0378 6.07396 11.8761 6.01779L11.8759 6.01796ZM13.0057 9.33496H16.0553C15.9941 10.3305 15.7102 11.2996 15.2245 12.1708C14.3955 12.0424 13.5638 11.9416 12.7294 11.8685C12.8933 11.0333 12.9858 10.1858 13.0057 9.33496ZM14.7152 4.86784C13.9904 4.97237 13.2634 5.05516 12.5344 5.11621C12.4034 4.6283 12.2344 4.1514 12.029 3.68985C11.8414 3.26515 11.6054 2.86354 11.3257 2.49302C12.6776 2.90765 13.8639 3.73881 14.7152 4.86784ZM4.61472 4.16519C5.39023 3.38894 6.34432 2.81477 7.39335 2.49302C7.37738 2.51374 7.36107 2.53345 7.34545 2.55434C6.80623 3.33053 6.41345 4.19876 6.18649 5.11621C5.45734 5.05448 4.7299 4.97169 4.00415 4.86784C4.1913 4.61988 4.3953 4.38511 4.61472 4.16519ZM4.00415 12.9527C4.72888 12.8481 5.45582 12.7653 6.18496 12.7043C6.31598 13.1922 6.48496 13.6691 6.69037 14.1306C6.87794 14.5553 7.11395 14.9569 7.39369 15.3275C6.04181 14.9128 4.8555 14.0817 4.00415 12.9527ZM14.1048 13.6553C13.3293 14.4316 12.3752 15.0057 11.3262 15.3275C11.3422 15.3068 11.3585 15.287 11.3741 15.2661C11.9133 14.49 12.3061 13.6217 12.533 12.7043C13.2622 12.766 13.9896 12.8488 14.7154 12.9527C14.5282 13.2006 14.3242 13.4354 14.1048 13.6553Z" fill="white"/>
</svg>
