<svg width="20" height="14" viewBox="0 0 20 14" fill="none" xmlns="http://www.w3.org/2000/svg">
<path d="M0.540428 6.58945C-0.206023 6.85596 -0.175056 7.2463 0.607525 7.45705L2.92623 8.0814C3.70946 8.29303 4.89462 8.17756 5.55849 7.82499L15.6275 2.42094C16.2895 2.06661 16.3604 2.11886 15.7856 2.53773L7.82559 8.33606C7.24882 8.75362 7.41914 9.26645 8.20494 9.47325L8.47656 9.54526C9.26236 9.75206 10.543 10.0994 11.3237 10.3154L13.8953 11.028C14.6766 11.244 15.5114 10.9894 15.7333 10.4361L19.6527 0.631735C19.874 0.0785093 19.4443 -0.156392 18.6978 0.109683L0.540428 6.58945Z" fill="white"/>
<path d="M6.90348 13.008C6.85767 13.1016 8.48928 11.4002 8.48928 11.4002C8.95057 10.9207 8.68864 10.3486 7.90928 10.1317L6.12993 9.636C5.35057 9.4191 4.97703 9.67376 5.29961 10.2037C5.29961 10.2037 6.95057 12.9119 6.90348 13.008Z" fill="white"/>
</svg>
