<svg width="55" height="55" viewBox="0 0 55 55" fill="none" xmlns="http://www.w3.org/2000/svg">
<path d="M0 22.2364C0.298776 21.4939 0.595117 20.9304 1.40293 20.6583L5.31509 12.7808L13.8957 9.75981C16.1946 7.84756 18.1125 5.07106 20.3397 3.15236C20.5691 2.95471 20.905 2.76851 21.2145 2.78412L30.905 4.7054C32.6329 6.0496 34.0414 7.80932 35.7398 9.21626C37.0928 9.19191 38.4512 9.17544 39.8042 9.13533C40.0585 9.12774 40.2935 9.0239 40.5473 9.01903C41.09 9.00857 42.7488 8.92965 43.1181 9.14249L46.6288 13.6884C48.2399 14.6095 50.3412 15.1302 51.9256 16.0186C52.3155 16.2372 52.5484 16.4111 52.7166 16.8389C53.1158 17.8538 53.2626 19.8088 53.7125 20.6497C53.7848 20.7849 54.2625 20.9888 54.462 21.2164C54.7466 21.541 54.7864 21.894 54.9999 22.2362V25.7811C54.6815 26.8438 53.8643 27.5527 52.7106 27.4975L49.1472 43.17C51.0602 48.0901 47.0273 53.1302 41.7832 52.0496C39.218 51.5211 37.3053 49.3471 36.78 46.8294H18.2199C17.4074 50.6883 13.6871 53.1044 9.82738 51.8864C6.18908 50.7381 4.45858 46.682 5.85263 43.17L2.37617 27.5615C1.1815 27.4833 0.344896 26.9523 0 25.7813L0 22.2364ZM28.3594 6.33907L23.6328 5.47969L25.9541 8.8039C26.2003 8.85589 28.0595 6.65761 28.3594 6.33907ZM21.001 5.58783L16.1247 10.6027L16.2144 10.9082L19.4088 14.2775L24.3659 10.3672L21.001 5.58783ZM27.6074 10.4182L32.0667 12.8607C32.2607 12.8463 33.587 10.7995 33.8303 10.4886L30.5615 7.30099L27.6074 10.4182ZM40.4975 11.1725L35.793 11.4091L33.6738 14.401L35.5579 19.2278L40.4975 11.1725ZM30.0778 14.1812L25.9583 11.9356L21.6995 15.4681L25.7284 16.714L29.9001 14.4852L30.0777 14.1812H30.0778ZM42.7519 12.032C42.4813 11.9903 42.4166 12.3003 42.2802 12.4707L38.9953 17.9395L44.3655 14.3367L42.752 12.032H42.7519ZM13.2129 12.3546L8.70189 13.9099L12.4078 16.2182L13.2129 12.3546ZM18.1543 20.5176L18.2397 16.1891L15.2551 12.9982C14.8141 15.4943 14.1972 17.9552 14.3945 20.5176H18.1543ZM12.2461 20.5176V18.7451C10.4047 17.436 8.41915 16.2696 6.44689 15.1467L3.86719 20.5176H12.2461ZM33.7305 20.5176L31.844 15.9015L26.7721 18.6085L26.4256 20.5176H33.7303H33.7305ZM51.4551 20.5176L50.7005 17.8884C49.5099 17.3293 48.2927 16.7225 47.0508 16.3282V20.5176H51.4551ZM44.9023 16.6504L39.1016 20.5176H44.9023V16.6504ZM20.3027 20.5176H24.1699L24.6002 18.5856L20.4652 17.2934C20.2072 18.346 20.3277 19.4412 20.3026 20.5175L20.3027 20.5176ZM52.8516 22.666H2.14844V25.3516H52.8516V22.666ZM50.3809 27.5H4.61914L5.06301 29.6346C5.29919 29.7875 9.8788 29.5495 10.6909 29.646C11.6147 29.7557 12.0616 30.7962 11.4348 31.4692C11.3753 31.5332 10.9345 31.797 10.9032 31.797H5.47837L7.52053 40.9278C11.4058 37.5952 17.2505 39.7434 18.2198 44.6941H36.78C37.7492 39.7433 43.5939 37.5952 47.4792 40.9278L50.3807 27.5002L50.3809 27.5ZM11.2555 41.4948C5.88156 42.1183 6.5599 50.4784 12.191 50.0563C17.7912 49.6367 17.143 40.8117 11.2555 41.4948ZM42.6227 41.4948C37.2488 42.1183 37.9271 50.4784 43.5581 50.0563C49.1584 49.6367 48.5101 40.8117 42.6227 41.4948Z" fill="black"/>
<path d="M15.2241 29.6694C16.7064 29.3415 17.0434 31.6252 15.6196 31.7942C14.2769 31.9536 13.9472 29.9518 15.2241 29.6694Z" fill="black"/>
<path d="M11.5741 44.7104C13.1062 44.4168 13.3537 46.6721 11.9671 46.8334C10.5518 46.9979 10.3092 44.9529 11.5741 44.7104Z" fill="black"/>
<path d="M42.9412 44.7104C44.4734 44.4168 44.7209 46.6721 43.3343 46.8334C41.919 46.9979 41.6764 44.9529 42.9412 44.7104Z" fill="black"/>
</svg>
