<svg width="50" height="50" viewBox="0 0 50 50" fill="none" xmlns="http://www.w3.org/2000/svg">
<g clip-path="url(#clip0_810_796)">
<path d="M17.0899 11.6213C17.1443 11.682 17.6326 11.4032 17.7415 11.3451C18.2928 11.0508 20.2787 9.70019 20.7286 9.78053C20.9378 9.8179 21.1588 10.0456 21.2732 10.2212L28.4162 22.6094C33.618 23.0604 38.9007 25.6998 41.3558 30.4587L48.2708 26.6376C48.6464 26.4389 49.0248 26.6915 49.1753 27.0458L49.2251 48.3947C49.2657 48.7133 49.0434 48.8877 48.8262 49.0701H28.8111C28.5939 48.8876 28.3718 48.7133 28.4123 48.3947L28.4619 37.7878C28.5461 37.5202 28.8481 37.3683 29.0725 37.2265C30.9352 36.0501 33.1317 35.1863 34.953 33.9256C34.5653 33.0257 34.08 32.0976 33.4486 31.3465C33.3257 31.2005 32.436 30.304 32.3529 30.283C32.1669 30.2361 32.0477 30.4396 31.8775 30.4688L25.9731 29.1434L12.9601 36.6416L9.42075 37.3068L8.84237 37.0076L0.857733 23.2157C0.666197 22.7247 0.815285 22.5923 1.07687 22.2196C1.66945 21.3756 2.59302 20.5822 3.1994 19.7248L13.0653 14.0428L13.1508 1.38327C13.277 0.975844 13.5202 0.909308 13.9114 0.874282C14.3598 0.834178 16.5752 0.823371 16.8356 0.986782C16.9055 1.03066 17.0899 1.2653 17.0899 1.31842V11.6213ZM15.7227 2.24629H14.4532V17.9201L14.6073 18.0561C14.996 17.9191 15.337 17.9493 15.7227 18.0666V2.24629ZM13.086 18.3107V15.6252L4.60891 20.5557L12.9865 35.017L25.6589 27.7576C26.2047 27.6114 29.1843 28.4959 29.9745 28.6686C30.0599 28.6872 30.2743 28.7723 30.2743 28.6614L20.4016 11.4317C19.4507 11.9238 18.4524 12.4352 17.5489 13.0083C17.3718 13.1206 17.1235 13.2081 17.0891 13.4274L17.1058 18.3442C21.7343 20.0118 22.3133 26.4387 17.9984 28.8874C15.3497 30.3904 11.8214 29.5355 10.2131 26.9455C8.19562 23.6967 9.68534 19.7748 13.0859 18.311L13.086 18.3107ZM14.9241 19.3624C9.04549 19.6266 9.35344 28.8659 15.7705 28.2218C21.0758 27.6893 20.6895 19.1033 14.9241 19.3624ZM11.6208 35.5465L3.56503 21.485L2.3563 22.9232L9.66398 35.6985L9.90474 35.832L11.6208 35.5465ZM29.2969 24.1223L31.5567 28.0628C33.7498 29.2417 35.161 31.1243 36.2792 33.2993L40.0954 31.155C38.1924 27.0663 33.6368 24.6723 29.2971 24.1225L29.2969 24.1223ZM47.8516 47.7541V28.4182L29.7852 38.3791V47.7541H47.8516Z" fill="black"/>
<path d="M25.7639 31.4717C27.1768 31.4084 29.6481 32.3743 30.7106 33.3032C32.1027 34.5204 30.0925 34.675 29.3436 34.9589C27.7776 35.5527 28.0723 36.7363 26.8268 37.4226C24.1537 38.8954 20.9189 35.9664 22.7516 33.152C23.4104 32.1403 24.5589 31.5257 25.7639 31.4717ZM28.7107 33.788C27.6823 32.9458 25.6669 32.4733 24.518 33.2583C23.1149 34.217 23.349 36.272 25.1471 36.427C26.7167 36.5623 26.6537 35.2178 27.538 34.4229C27.8425 34.1493 28.3069 33.8626 28.7107 33.788Z" fill="black"/>
<path d="M42.5514 9.58971C43.4045 9.40273 43.6318 10.3828 43.7993 11.0348C44.6209 14.2322 42.4413 15.9911 42.8171 18.3646C42.9277 19.0622 43.7411 20.0281 43.2632 20.5591C42.22 21.7182 41.4432 18.8134 41.4029 18.1194C41.2674 15.7793 43.043 14.062 42.5346 11.6159C42.4165 11.0477 41.63 9.79153 42.5514 9.58971Z" fill="black"/>
<path d="M36.1997 4.13212C36.6716 4.65868 36.9596 6.66194 36.918 7.37704C36.7973 9.45061 35.1733 11.1961 35.8667 13.3036C36.0101 13.7392 36.7733 14.7701 36.0334 15.0852C35.057 15.5011 34.6036 13.9708 34.4397 13.2657C33.7988 10.5096 36.0187 8.70491 35.4223 5.93537C35.3455 5.57873 34.9575 4.82535 34.9791 4.56623C35.0294 3.9609 35.7858 3.67027 36.1997 4.13212Z" fill="black"/>
<path d="M28.3924 0.895963C29.3742 0.693359 29.7331 2.65221 29.7888 3.36549C29.9819 5.83984 28.2927 7.72878 28.6569 9.86849C28.7702 10.5344 29.7031 11.5757 28.962 12.0177C27.8723 12.6677 27.2993 10.3672 27.2427 9.6224C27.0648 7.28151 28.6829 5.61575 28.4075 3.28177C28.3354 2.67031 27.4159 1.09753 28.3924 0.895963Z" fill="black"/>
<path d="M14.7224 21.1197C18.5671 20.5967 18.9085 26.5017 15.1809 26.565C11.7961 26.6226 11.4554 21.5641 14.7224 21.1197ZM14.9179 22.4822C12.9718 22.7635 13.7766 25.9105 15.7124 25.0381C17.0731 24.4249 16.4998 22.2536 14.9179 22.4822Z" fill="black"/>
</g>
<defs>
<clipPath id="clip0_810_796">
<rect width="50" height="50" fill="white"/>
</clipPath>
</defs>
</svg>
