<svg width="46" height="46" viewBox="0 0 46 46" fill="none" xmlns="http://www.w3.org/2000/svg">
<g clip-path="url(#clip0_810_781)">
<path d="M30.9682 27.824L23.355 31.8446H22.6451L15.1164 27.883C14.8942 27.7237 14.8425 27.4347 14.8195 27.1824C14.5742 24.5006 15.016 21.4501 14.8199 18.7282C14.8072 18.4283 14.938 18.1713 15.2105 18.0406C17.2757 17.0593 19.2495 15.8918 21.291 14.8672C21.6357 14.6942 22.6548 14.1117 22.9569 14.0989C23.3156 14.0836 24.6475 14.8346 25.0682 15.0469C27.0079 16.0252 28.8855 17.1347 30.8476 18.0722C31.0861 18.2126 31.1908 18.4558 31.1799 18.7282C30.9843 21.4506 31.425 24.4998 31.1804 27.1824C31.158 27.4278 31.1112 27.6218 30.968 27.824H30.9682ZM28.8398 18.7762L28.6912 18.5219L23.0305 15.5578L17.1621 18.6428L22.9622 21.6516L28.8398 18.7762ZM22.2814 22.9103L16.2619 19.8556V26.9532L22.2814 30.0079V22.9103ZM29.7384 26.9532V19.8556L23.7189 22.9103V30.0079L29.7384 26.9532Z" fill="black"/>
<path d="M14.1048 13.1173C14.1142 12.6129 13.9738 11.4873 14.6192 11.34C14.9803 11.2576 15.3292 11.3372 15.475 11.7032C15.5992 12.0149 15.5968 14.4243 15.5452 14.8713C15.4975 15.2841 15.2872 15.4969 14.8714 15.5451C14.4177 15.5977 12.1179 15.6104 11.7651 15.5031C11.3934 15.39 11.2715 15.0553 11.3252 14.6965C11.4415 13.918 12.5771 14.1771 13.1172 14.0613L7.54733 8.48439C5.86785 9.5558 3.68728 9.55676 2.1555 8.22216C-0.22811 6.14521 0.43302 2.14765 3.3908 1.00986C7.48959 -0.566834 10.8469 3.98501 8.48422 7.54702L14.1048 13.1173ZM4.743 2.09074C0.374682 2.49384 1.9424 9.29909 6.08048 7.65255C9.1275 6.44014 7.98912 1.79115 4.743 2.09074Z" fill="black"/>
<path d="M14.1048 32.883L8.48427 38.4533C9.67644 40.2999 9.51232 42.7727 7.81775 44.2495C5.47271 46.293 1.70933 45.2156 0.875462 42.2052C-0.236205 38.1923 4.15691 35.2707 7.54714 37.5163L13.117 31.9394C12.5771 31.8236 11.4413 32.0827 11.325 31.3042C11.2715 30.9454 11.3933 30.6107 11.7649 30.4976C12.1178 30.3902 14.4176 30.4029 14.8712 30.4556C15.287 30.5038 15.4974 30.7166 15.545 31.1294C15.5967 31.5765 15.5991 33.9858 15.4748 34.2975C15.329 34.6635 14.9801 34.7431 14.619 34.6607C13.9736 34.5134 14.1141 33.3878 14.1047 32.8834L14.1048 32.883ZM4.74282 38.1182C0.342029 38.5205 1.96269 45.4795 6.21973 43.6397C9.08826 42.4 7.93934 37.8259 4.74282 38.1182Z" fill="black"/>
<path d="M32.8828 14.1045C33.3872 14.1138 34.5128 13.9734 34.6602 14.6189C34.7426 14.9799 34.6629 15.3289 34.2969 15.4747C33.9852 15.5989 31.5759 15.5965 31.1288 15.5449C30.716 15.4972 30.5033 15.2868 30.455 14.871C30.4024 14.4174 30.3897 12.1175 30.497 11.7647C30.6101 11.393 30.9448 11.2712 31.3036 11.3248C32.0821 11.4412 31.823 12.5768 31.9388 13.1168L37.5157 7.54697C35.9961 5.24146 36.7757 2.02613 39.4178 1.00981C42.7885 -0.286811 46.0862 2.70618 45.1247 6.17763C44.3173 9.09204 40.9112 10.1042 38.453 8.4841L32.8827 14.1046L32.8828 14.1045ZM40.7701 2.09045C36.5312 2.48193 37.855 9.03274 41.9169 7.73109C45.166 6.68986 44.1449 1.77876 40.7701 2.09045Z" fill="black"/>
<path d="M32.8828 31.8955L38.4531 37.516C40.9113 35.8961 44.3174 36.9082 45.1248 39.8225C46.0865 43.2939 42.7886 46.2869 39.4179 44.9903C36.7758 43.974 35.9962 40.7586 37.5158 38.4531L31.9389 32.8833C31.8231 33.4232 32.0822 34.5589 31.3037 34.6753C30.9449 34.7288 30.6102 34.607 30.4971 34.2354C30.3897 33.8825 30.4024 31.5827 30.4551 31.1291C30.5034 30.7133 30.7161 30.5029 31.1289 30.4552C31.576 30.4036 33.9853 30.4012 34.297 30.5254C34.663 30.6712 34.7427 31.0202 34.6602 31.3812C34.5129 32.0267 33.3873 31.8862 32.8829 31.8956L32.8828 31.8955ZM40.77 38.1181C37.0416 38.4588 37.4513 44.0577 41.0984 43.9364C45.0265 43.8057 44.643 37.7642 40.77 38.1181Z" fill="black"/>
<path d="M23.7189 7.27747V9.79309C24.1873 9.09494 25.4005 9.2448 25.2323 10.1762C25.1939 10.3882 23.964 11.6218 23.72 11.8157C23.4233 12.0514 23.1441 12.3221 22.7545 12.1515C22.447 12.0169 20.8181 10.4527 20.7681 10.1762C20.5998 9.2448 21.8131 9.09483 22.2814 9.79309V7.27747C18.5519 6.52517 18.9515 0.925753 22.7714 0.715399C26.9071 0.487675 27.6938 6.39304 23.7189 7.27747ZM22.8007 2.08737C21.1274 2.26191 20.4054 4.43241 21.7403 5.52755C23.376 6.86946 25.6167 5.08971 24.7738 3.21282C24.4487 2.48879 23.5771 2.00627 22.8007 2.08737Z" fill="black"/>
<path d="M7.27747 22.281H9.79309C8.86758 21.6088 9.54033 20.2427 10.5138 20.9766C10.8746 21.2487 12.2463 22.6345 12.2188 23.0384C12.1938 23.4046 10.4928 25.1746 10.1762 25.2318C9.24481 25.3999 9.09495 24.1868 9.79309 23.7184H7.27747C6.55153 27.4583 0.925873 27.0499 0.715399 23.2285C0.487675 19.0928 6.39304 18.3061 7.27747 22.2809V22.281ZM3.84364 21.0441C1.35868 21.3033 1.66259 25.0368 4.08418 24.9791C6.7614 24.9154 6.48636 20.7683 3.84364 21.0441Z" fill="black"/>
<path d="M23.7189 36.2069V38.7225C27.4485 39.4748 27.0489 45.0742 23.229 45.2846C19.0933 45.5123 18.3066 39.6069 22.2814 38.7225V36.2069C21.813 36.9051 20.5998 36.7552 20.7681 35.8238C20.8304 35.4794 22.6483 33.7541 23.0391 33.7816C23.4059 33.8072 25.175 35.5069 25.2322 35.8238C25.4004 36.7552 24.1873 36.905 23.7189 36.2069ZM22.8007 40.0012C19.8428 40.3097 21.0353 44.986 23.8303 43.7304C25.7966 42.847 24.9567 39.7762 22.8007 40.0012Z" fill="black"/>
<path d="M38.7225 23.7188H36.2068C36.905 24.1872 36.7551 25.4003 35.8237 25.2322C35.5071 25.175 33.8061 23.405 33.7812 23.0388C33.7537 22.635 35.1255 21.2491 35.4862 20.977C36.4596 20.243 37.1323 21.6092 36.2068 22.2814H38.7225C39.4747 18.5519 45.0742 18.9515 45.2845 22.7714C45.5122 26.9071 39.6069 27.6938 38.7225 23.7189V23.7188ZM41.7574 21.0444C38.7998 21.3529 39.9915 26.0289 42.787 24.7736C44.7673 23.8844 43.9135 20.8194 41.7574 21.0444Z" fill="black"/>
</g>
<defs>
<clipPath id="clip0_810_781">
<rect width="46" height="46" fill="white"/>
</clipPath>
</defs>
</svg>
